<svg width="33" height="32" viewBox="0 0 33 32" fill="none" xmlns="http://www.w3.org/2000/svg">
<path d="M15.1439 1.18251C15.7418 0.251583 17.1025 0.251583 17.7004 1.18251L22.3174 8.37068C22.5232 8.69099 22.8416 8.92238 23.2099 9.01907L31.4729 11.1888C32.5431 11.4698 32.9635 12.7639 32.263 13.6202L26.8533 20.2325C26.6123 20.5271 26.4906 20.9016 26.5124 21.2816L27.0023 29.8108C27.0658 30.9154 25.965 31.7151 24.934 31.3135L16.9737 28.2119C16.619 28.0737 16.2253 28.0737 15.8706 28.2119L7.91031 31.3135C6.87938 31.7151 5.77858 30.9154 5.84203 29.8108L6.33191 21.2816C6.35374 20.9016 6.23209 20.5271 5.99103 20.2325L0.581402 13.6202C-0.11919 12.7639 0.301275 11.4698 1.37141 11.1888L9.6345 9.01907C10.0027 8.92238 10.3212 8.69099 10.5269 8.37068L15.1439 1.18251Z" fill="#F3976B"/>
</svg>
