<svg width="26" height="26" viewBox="0 0 26 26" fill="none" xmlns="http://www.w3.org/2000/svg">
<path d="M13 0.000488281C10.4288 0.000488281 7.91543 0.762925 5.77759 2.19138C3.63975 3.61984 1.97351 5.65016 0.989572 8.0256C0.0056327 10.401 -0.251811 13.0149 0.249797 15.5367C0.751405 18.0584 1.98953 20.3748 3.80762 22.1929C5.6257 24.011 7.94208 25.2491 10.4638 25.7507C12.9856 26.2523 15.5995 25.9949 17.9749 25.0109C20.3503 24.027 22.3807 22.3607 23.8091 20.2229C25.2376 18.0851 26 15.5716 26 13.0005C25.9964 9.55379 24.6256 6.2493 22.1884 3.81212C19.7512 1.37494 16.4467 0.00412805 13 0.000488281ZM18.7075 13.708L14.7075 17.708C14.5199 17.8956 14.2654 18.001 14 18.001C13.7346 18.001 13.4801 17.8956 13.2925 17.708C13.1049 17.5203 12.9994 17.2659 12.9994 17.0005C12.9994 16.7351 13.1049 16.4806 13.2925 16.293L15.5863 14.0005H8.00001C7.73479 14.0005 7.48044 13.8951 7.2929 13.7076C7.10536 13.5201 7.00001 13.2657 7.00001 13.0005C7.00001 12.7353 7.10536 12.4809 7.2929 12.2934C7.48044 12.1058 7.73479 12.0005 8.00001 12.0005H15.5863L13.2925 9.70799C13.1049 9.52035 12.9994 9.26585 12.9994 9.00049C12.9994 8.73512 13.1049 8.48063 13.2925 8.29299C13.4801 8.10535 13.7346 7.99993 14 7.99993C14.2654 7.99993 14.5199 8.10535 14.7075 8.29299L18.7075 12.293C18.8005 12.3859 18.8742 12.4962 18.9246 12.6175C18.9749 12.7389 19.0008 12.8691 19.0008 13.0005C19.0008 13.1319 18.9749 13.262 18.9246 13.3834C18.8742 13.5048 18.8005 13.6151 18.7075 13.708Z" fill="black"/>
</svg>
