<svg width="40" height="40" viewBox="0 0 40 40" fill="none" xmlns="http://www.w3.org/2000/svg">
<path d="M31.7953 7.79063C30.3 6.28028 28.5215 5.07971 26.5615 4.25767C24.6016 3.43562 22.4988 3.00824 20.3734 3H20.25C15.9402 3 11.807 4.71205 8.75952 7.75951C5.71205 10.807 4 14.9402 4 19.25V28C4 28.9946 4.39509 29.9484 5.09835 30.6517C5.80161 31.3549 6.75544 31.75 7.75 31.75H10.25C11.2446 31.75 12.1984 31.3549 12.9017 30.6517C13.6049 29.9484 14 28.9946 14 28V21.75C14 20.7554 13.6049 19.8016 12.9017 19.0983C12.1984 18.3951 11.2446 18 10.25 18H6.55625C6.79732 15.3936 7.77631 12.91 9.37848 10.8402C10.9806 8.77032 13.1396 7.20005 15.6023 6.31338C18.0651 5.42672 20.7295 5.2604 23.2834 5.83392C25.8373 6.40744 28.1747 7.69703 30.0219 9.55156C32.2795 11.8208 33.6682 14.811 33.9453 18H30.25C29.2554 18 28.3016 18.3951 27.5984 19.0983C26.8951 19.8016 26.5 20.7554 26.5 21.75V28C26.5 28.9946 26.8951 29.9484 27.5984 30.6517C28.3016 31.3549 29.2554 31.75 30.25 31.75H34C34 32.7446 33.6049 33.6984 32.9017 34.4017C32.1984 35.1049 31.2446 35.5 30.25 35.5H21.5C21.1685 35.5 20.8505 35.6317 20.6161 35.8661C20.3817 36.1005 20.25 36.4185 20.25 36.75C20.25 37.0815 20.3817 37.3995 20.6161 37.6339C20.8505 37.8683 21.1685 38 21.5 38H30.25C31.9076 38 33.4973 37.3415 34.6694 36.1694C35.8415 34.9973 36.5 33.4076 36.5 31.75V19.25C36.5081 17.1243 36.0968 15.018 35.2894 13.0515C34.4821 11.0851 33.2947 9.29735 31.7953 7.79063ZM10.25 20.5C10.5815 20.5 10.8995 20.6317 11.1339 20.8661C11.3683 21.1005 11.5 21.4185 11.5 21.75V28C11.5 28.3315 11.3683 28.6495 11.1339 28.8839C10.8995 29.1183 10.5815 29.25 10.25 29.25H7.75C7.41848 29.25 7.10054 29.1183 6.86612 28.8839C6.6317 28.6495 6.5 28.3315 6.5 28V20.5H10.25ZM30.25 29.25C29.9185 29.25 29.6005 29.1183 29.3661 28.8839C29.1317 28.6495 29 28.3315 29 28V21.75C29 21.4185 29.1317 21.1005 29.3661 20.8661C29.6005 20.6317 29.9185 20.5 30.25 20.5H34V29.25H30.25Z" fill="white"/>
</svg>
