<svg width="40" height="40" viewBox="0 0 40 40" fill="none" xmlns="http://www.w3.org/2000/svg">
<g clip-path="url(#clip0_1028_1059)">
<path d="M23.7502 12.4999C23.7502 12.1684 23.8819 11.8505 24.1163 11.616C24.3508 11.3816 24.6687 11.2499 25.0002 11.2499H38.7502C39.0817 11.2499 39.3997 11.3816 39.6341 11.616C39.8685 11.8505 40.0002 12.1684 40.0002 12.4999C40.0002 12.8314 39.8685 13.1494 39.6341 13.3838C39.3997 13.6182 39.0817 13.7499 38.7502 13.7499H25.0002C24.6687 13.7499 24.3508 13.6182 24.1163 13.3838C23.8819 13.1494 23.7502 12.8314 23.7502 12.4999ZM38.7502 18.7499H25.0002C24.6687 18.7499 24.3508 18.8816 24.1163 19.116C23.8819 19.3504 23.7502 19.6684 23.7502 19.9999C23.7502 20.3314 23.8819 20.6494 24.1163 20.8838C24.3508 21.1182 24.6687 21.2499 25.0002 21.2499H38.7502C39.0817 21.2499 39.3997 21.1182 39.6341 20.8838C39.8685 20.6494 40.0002 20.3314 40.0002 19.9999C40.0002 19.6684 39.8685 19.3504 39.6341 19.116C39.3997 18.8816 39.0817 18.7499 38.7502 18.7499ZM38.7502 26.2499H28.7502C28.4187 26.2499 28.1008 26.3816 27.8663 26.616C27.6319 26.8505 27.5002 27.1684 27.5002 27.4999C27.5002 27.8314 27.6319 28.1494 27.8663 28.3838C28.1008 28.6182 28.4187 28.7499 28.7502 28.7499H38.7502C39.0817 28.7499 39.3997 28.6182 39.6341 28.3838C39.8685 28.1494 40.0002 27.8314 40.0002 27.4999C40.0002 27.1684 39.8685 26.8505 39.6341 26.616C39.3997 26.3816 39.0817 26.2499 38.7502 26.2499ZM23.7112 29.6874C23.752 29.8464 23.7612 30.012 23.738 30.1745C23.7149 30.3371 23.66 30.4935 23.5764 30.6348C23.4929 30.7761 23.3823 30.8996 23.2509 30.9982C23.1196 31.0967 22.9702 31.1685 22.8112 31.2093C22.7093 31.2367 22.6042 31.2504 22.4987 31.2499C22.2214 31.2501 21.952 31.158 21.7328 30.9883C21.5136 30.8186 21.357 30.5808 21.2877 30.3124C20.3252 26.5718 16.5471 23.7499 12.4987 23.7499C8.45022 23.7499 4.6721 26.5702 3.7096 30.3124C3.62672 30.6336 3.41965 30.9087 3.13395 31.0771C2.84825 31.2456 2.50732 31.2937 2.18616 31.2109C1.865 31.128 1.58992 30.9209 1.42143 30.6352C1.25294 30.3495 1.20484 30.0086 1.28772 29.6874C2.16116 26.2952 4.70022 23.5484 7.9221 22.1874C6.68152 21.2319 5.77114 19.912 5.31863 18.4129C4.86613 16.9138 4.89419 15.3107 5.39889 13.8283C5.90358 12.346 6.8596 11.0588 8.13286 10.1473C9.40612 9.23574 10.9328 8.74561 12.4987 8.74561C14.0646 8.74561 15.5912 9.23574 16.8645 10.1473C18.1377 11.0588 19.0937 12.346 19.5984 13.8283C20.1031 15.3107 20.1312 16.9138 19.6787 18.4129C19.2262 19.912 18.3158 21.2319 17.0752 22.1874C20.2987 23.5484 22.8377 26.2952 23.7112 29.6874ZM12.5002 21.2499C13.4891 21.2499 14.4558 20.9567 15.2781 20.4073C16.1003 19.8579 16.7412 19.077 17.1196 18.1633C17.4981 17.2497 17.5971 16.2444 17.4042 15.2745C17.2112 14.3046 16.735 13.4136 16.0358 12.7144C15.3365 12.0151 14.4456 11.5389 13.4757 11.346C12.5058 11.1531 11.5004 11.2521 10.5868 11.6305C9.67317 12.009 8.89228 12.6498 8.34287 13.4721C7.79347 14.2943 7.50022 15.261 7.50022 16.2499C7.50022 17.576 8.02701 18.8478 8.96469 19.7854C9.90237 20.7231 11.1741 21.2499 12.5002 21.2499Z" fill="white"/>
</g>
<defs>
<clipPath id="clip0_1028_1059">
<rect width="40" height="40" fill="white"/>
</clipPath>
</defs>
</svg>
