<svg width="40" height="41" viewBox="0 0 40 41" fill="none" xmlns="http://www.w3.org/2000/svg">
<rect x="0.5" y="1.34619" width="39" height="39" rx="19.5" stroke="#262626"/>
<rect x="0.5" y="1.34619" width="39" height="39" rx="19.5" stroke="black" stroke-opacity="0.2"/>
<rect x="0.5" y="1.34619" width="39" height="39" rx="19.5" stroke="black" stroke-opacity="0.2"/>
<path fill-rule="evenodd" clip-rule="evenodd" d="M27 20.8462C27 21.2604 26.6642 21.5962 26.25 21.5962L15.6121 21.5962L19.7698 25.5556C20.0684 25.8427 20.0777 26.3174 19.7906 26.616C19.5035 26.9146 19.0287 26.9239 18.7302 26.6368L13.2302 21.3868C13.0831 21.2454 13 21.0502 13 20.8462C13 20.6422 13.0831 20.447 13.2302 20.3056L18.7302 15.0556C19.0287 14.7685 19.5035 14.7778 19.7906 15.0764C20.0777 15.3749 20.0684 15.8497 19.7698 16.1368L15.6121 20.0962L26.25 20.0962C26.6642 20.0962 27 20.432 27 20.8462Z" fill="#262626"/>
<path fill-rule="evenodd" clip-rule="evenodd" d="M27 20.8462C27 21.2604 26.6642 21.5962 26.25 21.5962L15.6121 21.5962L19.7698 25.5556C20.0684 25.8427 20.0777 26.3174 19.7906 26.616C19.5035 26.9146 19.0287 26.9239 18.7302 26.6368L13.2302 21.3868C13.0831 21.2454 13 21.0502 13 20.8462C13 20.6422 13.0831 20.447 13.2302 20.3056L18.7302 15.0556C19.0287 14.7685 19.5035 14.7778 19.7906 15.0764C20.0777 15.3749 20.0684 15.8497 19.7698 16.1368L15.6121 20.0962L26.25 20.0962C26.6642 20.0962 27 20.432 27 20.8462Z" fill="black" fill-opacity="0.2"/>
<path fill-rule="evenodd" clip-rule="evenodd" d="M27 20.8462C27 21.2604 26.6642 21.5962 26.25 21.5962L15.6121 21.5962L19.7698 25.5556C20.0684 25.8427 20.0777 26.3174 19.7906 26.616C19.5035 26.9146 19.0287 26.9239 18.7302 26.6368L13.2302 21.3868C13.0831 21.2454 13 21.0502 13 20.8462C13 20.6422 13.0831 20.447 13.2302 20.3056L18.7302 15.0556C19.0287 14.7685 19.5035 14.7778 19.7906 15.0764C20.0777 15.3749 20.0684 15.8497 19.7698 16.1368L15.6121 20.0962L26.25 20.0962C26.6642 20.0962 27 20.432 27 20.8462Z" fill="black" fill-opacity="0.2"/>
</svg>
