<svg width="40" height="40" viewBox="0 0 40 40" fill="none" xmlns="http://www.w3.org/2000/svg">
<path d="M20.25 3.75C17.0361 3.75 13.8943 4.70305 11.222 6.48862C8.54969 8.27419 6.46689 10.8121 5.23696 13.7814C4.00704 16.7507 3.68524 20.018 4.31225 23.1702C4.93926 26.3224 6.48692 29.2179 8.75952 31.4905C11.0321 33.7631 13.9276 35.3107 17.0798 35.9378C20.232 36.5648 23.4993 36.243 26.4686 35.013C29.4379 33.7831 31.9758 31.7003 33.7614 29.028C35.547 26.3557 36.5 23.2139 36.5 20C36.4955 15.6916 34.7819 11.561 31.7355 8.51454C28.689 5.46806 24.5584 3.75455 20.25 3.75ZM11.825 30.8594C12.7293 29.4451 13.975 28.2813 15.4474 27.4751C16.9198 26.6689 18.5714 26.2463 20.25 26.2463C21.9286 26.2463 23.5803 26.6689 25.0526 27.4751C26.525 28.2813 27.7707 29.4451 28.675 30.8594C26.2662 32.7328 23.3016 33.7499 20.25 33.7499C17.1984 33.7499 14.2339 32.7328 11.825 30.8594ZM15.25 18.75C15.25 17.7611 15.5433 16.7944 16.0927 15.9721C16.6421 15.1499 17.423 14.509 18.3366 14.1306C19.2502 13.7522 20.2556 13.6531 21.2255 13.8461C22.1954 14.039 23.0863 14.5152 23.7855 15.2145C24.4848 15.9137 24.961 16.8046 25.1539 17.7745C25.3469 18.7445 25.2478 19.7498 24.8694 20.6634C24.491 21.577 23.8501 22.3579 23.0279 22.9073C22.2056 23.4568 21.2389 23.75 20.25 23.75C18.9239 23.75 17.6522 23.2232 16.7145 22.2855C15.7768 21.3479 15.25 20.0761 15.25 18.75ZM30.525 29.1266C29.1309 27.1064 27.1706 25.5435 24.8906 24.6344C26.1153 23.6698 27.009 22.3475 27.4474 20.8514C27.8858 19.3553 27.847 17.7598 27.3366 16.2868C26.8261 14.8138 25.8694 13.5364 24.5993 12.6323C23.3292 11.7283 21.809 11.2425 20.25 11.2425C18.691 11.2425 17.1708 11.7283 15.9007 12.6323C14.6307 13.5364 13.6739 14.8138 13.1634 16.2868C12.653 17.7598 12.6142 19.3553 13.0526 20.8514C13.491 22.3475 14.3847 23.6698 15.6094 24.6344C13.3294 25.5435 11.3691 27.1064 9.97501 29.1266C8.2134 27.1456 7.06199 24.6976 6.65945 22.0773C6.25691 19.4571 6.62039 16.7764 7.70613 14.358C8.79186 11.9395 10.5536 9.88653 12.7791 8.44615C15.0046 7.00577 17.599 6.23945 20.25 6.23945C22.901 6.23945 25.4954 7.00577 27.7209 8.44615C29.9465 9.88653 31.7082 11.9395 32.7939 14.358C33.8796 16.7764 34.2431 19.4571 33.8406 22.0773C33.438 24.6976 32.2866 27.1456 30.525 29.1266Z" fill="white"/>
</svg>
